<svg xmlns="http://www.w3.org/2000/svg" viewBox="0 0 120.31 145.64"><defs><style>.cls-1{fill:#fec44b;}.cls-1,.cls-2{stroke:#f9ed32;}.cls-1,.cls-2,.cls-3{stroke-miterlimit:10;}.cls-2{fill:#da1c5c;}.cls-3{fill:#1b132a;stroke:#d7df23;stroke-width:2px;}</style></defs><g id="Layer_2" data-name="Layer 2"><g id="Layer_1-2" data-name="Layer 1"><path class="cls-1" d="M31.5,54.78a10.78,10.78,0,0,0-.27,2.84l.09,70.62a9.82,9.82,0,0,0,.36,3.2A9.47,9.47,0,0,0,34.34,135a23.85,23.85,0,0,0,6.38,4.72c3.85,1.73,8.26,1.51,12.47,1.26,2.18-.13,4.46-.29,6.35-1.39a11.64,11.64,0,0,0,3.86-4.23,26.13,26.13,0,0,0,3.32-8.09,42.72,42.72,0,0,0,.6-8.9c0-19.85.6-39.7.5-59.54,0-4.38.72-10.53-.69-14.71-2.27-6.74-10.52-6.27-16-6.6-4.11-.24-8.2-.78-12.32-.87-7.7-.17-15.41-.29-23.12-.29-2.27,0-4.93.93-5.27-2.33-.5-4.87,6.43-2.77,9-2.77q4.93,0,9.88,0,9.65,0,19.3,0H72.68c2.6,0,5.47-.87,8.17-.45,3.31.52,4.87,2.92,6.75,5.43a15.65,15.65,0,0,0,21.27,3.7c6.74-4.62,11.43-13.22,10.47-21.58C118.49,11,112.77,2.4,105.12.92,94.45-1.14,84,4.53,81.59,15.53c-.36,1.66-.71,3.65-2.27,4.33a4.75,4.75,0,0,1-2.12.23c-8-.35-16-.1-24-.07-7.29,0-14.57,0-21.86,0-3.66,0-7.33,0-11-.1-3.1-.06-6.58-.65-9.55.37A17.11,17.11,0,0,0,2,26.85c-3.17,4.94-1,11.74,2.62,15.79C9.86,48.45,17,46.41,23.93,46.4c9.19,0,19-1.85,28-.15,3,.56,5,1.49,6.06,4.47s.93,5.94.88,8.9q-.49,27,.39,54c.12,3.53.23,7.2-1.22,10.43a13.83,13.83,0,0,1-4.35,5.28,9.56,9.56,0,0,1-5.68,2.19c-3.56,0-6.57-3-7.8-6.33s-1.06-7-.91-10.58c.64-14.87.87-29.75,1.1-44.62A71,71,0,0,0,40,59a9.64,9.64,0,0,0-2.14-5.45c-1.37-1.43-3.86-2-5.34-.63A3.64,3.64,0,0,0,31.5,54.78Z"/><path class="cls-1" d="M109.41,142.56a2.65,2.65,0,0,0,1.53,2.16,3,3,0,0,0,1.34.06,16.08,16.08,0,0,0,4.87-1.38,4.28,4.28,0,0,0,1.49-1c1.6-1.86.64-6.68.6-8.91q-.09-5.61-.16-11.22c-.1-7.48-.17-15-.17-22.43,0-6.52-.19-13.08,0-19.58.18-6.21.52-12.51-2.21-18.29A24.11,24.11,0,0,0,110,53.67a17.68,17.68,0,0,0-9-4.21,16.13,16.13,0,0,0-8.63,1.73,21.59,21.59,0,0,0-10.83,12.3c-2,5.93-.85,13.05-.82,19.22q.06,14.31.08,28.63c0,8.2-2.48,19.38,2.38,26.61,2.81,4.19,6.9,7.1,12.09,7.19,2.12,0,3.87-2.68,4.48-4.41,1.83-5.23-4.66-4.64-7.38-6.8-2.54-2-2.29-5.09-2.13-8,.24-4,.32-8,.38-12,.12-7.88,0-15.76-.28-23.63-.2-5.76-.94-11.65-.73-17.4.14-4,1.26-8.53,4.57-11.11,3.9-3.05,9.52-1.25,12.58,2.12,5,5.45,3.24,12.31,3.14,18.92-.14,10.13-.19,20.26-.41,30.4C109.24,122.88,107.72,132.94,109.41,142.56Z"/><path class="cls-2" d="M32.94,56.75a11.08,11.08,0,0,0-.26,2.88l.08,71.47a10.64,10.64,0,0,0,.35,3.24,9.47,9.47,0,0,0,2.57,3.57,22.82,22.82,0,0,0,6.16,4.78c3.71,1.75,8,1.53,12,1.28,2.1-.14,4.3-.3,6.12-1.41a11.65,11.65,0,0,0,3.73-4.28,26.93,26.93,0,0,0,3.2-8.19,45.16,45.16,0,0,0,.58-9c0-20.08.58-40.17.49-60.25,0-4.43.69-10.65-.67-14.88-2.2-6.82-10.15-6.35-15.48-6.68-4-.25-7.91-.79-11.88-.89-7.44-.17-14.87-.29-22.31-.29-2.2,0-4.76.94-5.09-2.36-.48-4.93,6.21-2.8,8.66-2.8h9.53l18.63,0H72.67c2.51,0,5.28-.88,7.88-.45,3.2.52,4.71,2.95,6.52,5.49,4.8,6.71,13.87,8.52,20.52,3.74s11-13.37,10.1-21.84c-.81-7.45-6.34-16.1-13.72-17.6C93.68.16,83.56,5.9,81.27,17c-.34,1.68-.69,3.7-2.19,4.39a4.58,4.58,0,0,1-2,.23c-7.72-.35-15.4-.1-23.13-.08-7,0-14.06,0-21.1,0-3.53,0-7.07,0-10.6-.11-3,0-6.35-.65-9.22.38a16.65,16.65,0,0,0-8.47,6.64c-3.06,5-1,11.87,2.53,16,5,5.87,11.88,3.81,18.59,3.8,8.87,0,18.29-1.87,27.06-.15,2.91.57,4.86,1.51,5.85,4.53s.89,6,.84,9q-.47,27.3.39,54.6c.11,3.57.21,7.29-1.18,10.55a13.87,13.87,0,0,1-4.2,5.35,9,9,0,0,1-5.48,2.22c-3.44,0-6.34-3-7.53-6.41s-1-7.11-.88-10.71c.63-15,.84-30.1,1.06-45.16a73.92,73.92,0,0,0-.38-11,10,10,0,0,0-2.06-5.52c-1.33-1.45-3.73-2-5.16-.64A3.75,3.75,0,0,0,32.94,56.75Z"/><ellipse class="cls-3" cx="99.84" cy="22.57" rx="11.17" ry="12.24"/><path class="cls-2" d="M110.57,140.65a2.55,2.55,0,0,0,1.39,2.08,2.64,2.64,0,0,0,1.22.06,14.5,14.5,0,0,0,4.44-1.33,4,4,0,0,0,1.36-1c1.45-1.78.57-6.42.54-8.56l-.15-10.79q-.14-10.78-.15-21.57c0-6.26-.18-12.57,0-18.82.16-6,.48-12-2-17.58a23.05,23.05,0,0,0-6.1-8,15.82,15.82,0,0,0-8.25-4A14.06,14.06,0,0,0,95,52.8a20.45,20.45,0,0,0-9.86,11.83c-1.87,5.7-.77,12.55-.75,18.48q.06,13.76.07,27.52c0,7.89-2.26,18.64,2.17,25.59,2.56,4,6.29,6.82,11,6.91,1.93,0,3.53-2.57,4.08-4.24,1.67-5-4.24-4.46-6.72-6.54-2.32-1.94-2.09-4.89-1.94-7.66.21-3.85.29-7.72.35-11.58.1-7.57,0-15.15-.26-22.72-.19-5.53-.86-11.19-.67-16.72.13-3.84,1.15-8.21,4.16-10.69,3.56-2.92,8.69-1.2,11.47,2,4.51,5.24,3,11.84,2.87,18.19-.13,9.74-.18,19.48-.38,29.23C110.4,121.73,109,131.4,110.57,140.65Z"/></g></g></svg>